<svg
            viewBox="0 0 176 26"
            fill="none"
            xmlns="http://www.w3.org/2000/svg"
          >
            <g clip-path="url(#clip0_196_1052)">
              <path
                d="M43.85 21.4502H28.82V25.5502H45.74C44.98 24.2502 44.35 22.8802 43.85 21.4502Z"
                fill="#F63133"
              />
              <path
                d="M45.83 1.25H28.66V5.35H43.84C44.38 3.92 45.04 2.54 45.83 1.25Z"
                fill="#F63133"
              />
              <path
                d="M21.57 1.1001H17.14L10.78 15.5901L4.43 1.1001H0L8.88 21.3501L10.78 25.7001L21.57 1.1001Z"
                fill="#F63133"
              />
              <path
                d="M57.94 1.1001V21.6001H67.54L65.74 25.7001H53.82V1.1001H57.94Z"
                fill="#F63133"
              />
              <path
                d="M85.08 6.1501L82.86 1.1001L72.08 25.7001H76.51L78.31 21.6001H87.42L89.22 25.7001H93.65L85.08 6.1501ZM80.1 17.5001L82.86 11.2101L85.62 17.5001H80.1Z"
                fill="#F63133"
              />
              <path
                d="M42.4 13.6101C42.4 12.8501 42.44 12.1001 42.51 11.3501H28.73V15.4501H42.47C42.42 14.8401 42.4 14.2301 42.4 13.6101Z"
                fill="#F63133"
              />
              <path
                d="M173.05 20.5195H158.02V24.6195H174.94C174.19 23.3195 173.56 21.9495 173.05 20.5195Z"
                fill="#F63133"
              />
              <path
                d="M171.69 12.5198C171.69 11.7598 171.73 11.0098 171.8 10.2598H158.03V14.3598H171.77C171.72 13.7598 171.69 13.1398 171.69 12.5198Z"
                fill="#F63133"
              />
              <path
                d="M175.19 0.00976562H158.02V4.10977H173.2C173.74 2.67977 174.41 1.30977 175.19 0.00976562Z"
                fill="#F63133"
              />
              <path
                d="M115.95 0C122.88 0 128.52 5.64 128.52 12.57C128.52 19.5 122.88 25.14 115.95 25.14C109 25.14 103.38 19.5 103.38 12.57C103.38 5.64 109 0 115.95 0ZM115.95 4.19C111.31 4.19 107.57 7.93 107.57 12.57C107.57 17.21 111.31 20.95 115.95 20.95C120.56 20.95 124.33 17.21 124.33 12.57C124.33 7.93 120.56 4.19 115.95 4.19Z"
                fill="#F63133"
              />
              <path
                d="M138.4 11.17V25.13H134.21V0L148.17 13.96V0H152.36V25.13L138.4 11.17Z"
                fill="#F63133"
              />
            </g>
            <defs>
              <clipPath id="clip0_196_1052">
                <rect width="175.19" height="25.7" fill="white" />
              </clipPath>
            </defs>
          </svg>